<svg xmlns="http://www.w3.org/2000/svg" version="1.1" xmlns:xlink="http://www.w3.org/1999/xlink" xmlns:svgjs="http://svgjs.dev/svgjs" width="1440" height="560" preserveAspectRatio="none" viewBox="0 0 1440 560"><g mask="url(&quot;#SvgjsMask1119&quot;)" fill="none"><path d="M1172.82 79.96 a121.32 121.32 0 1 0 242.64 0 a121.32 121.32 0 1 0 -242.64 0z" fill="rgba(186, 230, 253, 0.44)" class="triangle-float1"></path><path d="M660.341,327.97C710.611,327.916,754.182,298.679,781.557,256.517C812.085,209.498,836.476,149.553,807.241,101.72C778.695,55.015,715.049,56.367,660.341,58.189C609.951,59.867,555.801,67.979,529.462,110.97C502.193,155.478,511.712,212.083,538.67,256.78C564.681,299.906,609.978,328.024,660.341,327.97" fill="rgba(186, 230, 253, 0.44)" class="triangle-float1"></path><path d="M377.904,415.426C412.5,414.566,446.522,401.793,464.644,372.31C483.607,341.458,486.157,301.506,466.694,270.967C448.385,242.238,411.969,235.883,377.904,236.203C344.558,236.516,310.564,244.936,291.957,272.609C271.112,303.61,264.092,344.81,283.354,376.818C302.168,408.081,341.428,416.333,377.904,415.426" fill="rgba(186, 230, 253, 0.44)" class="triangle-float2"></path><path d="M-43.42 231.46 a126.37 126.37 0 1 0 252.74 0 a126.37 126.37 0 1 0 -252.74 0z" fill="rgba(186, 230, 253, 0.44)" class="triangle-float3"></path><path d="M818.089,89.313C840.331,89.278,855.585,68.784,865.367,48.808C873.856,31.472,872.662,12.221,864.377,-5.213C854.428,-26.149,841.253,-49.818,818.089,-50.678C794.09,-51.569,775.778,-30.563,765.437,-8.887C756.504,9.837,760.752,30.672,770.555,48.956C781.082,68.59,795.811,89.348,818.089,89.313" fill="rgba(186, 230, 253, 0.44)" class="triangle-float2"></path><path d="M641.85 490.43 a165 165 0 1 0 330 0 a165 165 0 1 0 -330 0z" fill="rgba(186, 230, 253, 0.44)" class="triangle-float1"></path><path d="M1155.68 25.66 a105.08 105.08 0 1 0 210.16 0 a105.08 105.08 0 1 0 -210.16 0z" fill="rgba(186, 230, 253, 0.44)" class="triangle-float2"></path><path d="M1080.47 385.53 a114.77 114.77 0 1 0 229.54 0 a114.77 114.77 0 1 0 -229.54 0z" fill="rgba(186, 230, 253, 0.44)" class="triangle-float2"></path></g><defs><mask id="SvgjsMask1119"><rect width="1440" height="560" fill="#ffffff"></rect></mask><style>
                @keyframes float1 {
                    0%{transform: translate(0, 0)}
                    50%{transform: translate(-10px, 0)}
                    100%{transform: translate(0, 0)}
                }

                .triangle-float1 {
                    animation: float1 5s infinite;
                }

                @keyframes float2 {
                    0%{transform: translate(0, 0)}
                    50%{transform: translate(-5px, -5px)}
                    100%{transform: translate(0, 0)}
                }

                .triangle-float2 {
                    animation: float2 4s infinite;
                }

                @keyframes float3 {
                    0%{transform: translate(0, 0)}
                    50%{transform: translate(0, -10px)}
                    100%{transform: translate(0, 0)}
                }

                .triangle-float3 {
                    animation: float3 6s infinite;
                }
            </style></defs></svg>